<mxfile host="Electron" agent="Mozilla/5.0 (Windows NT 10.0; Win64; x64) AppleWebKit/537.36 (KHTML, like Gecko) draw.io/24.7.8 Chrome/128.0.6613.36 Electron/32.0.1 Safari/537.36" version="24.7.8">
  <diagram name="Page-1" id="18yPI4xaUz7z1KzBKDxC">
    <mxGraphModel dx="1434" dy="836" grid="1" gridSize="10" guides="1" tooltips="1" connect="1" arrows="1" fold="1" page="1" pageScale="1" pageWidth="850" pageHeight="1100" math="0" shadow="0">
      <root>
        <mxCell id="0" />
        <mxCell id="1" parent="0" />
        <mxCell id="alUNZszVCnnEZAuiXwET-3" value="" style="rounded=0;whiteSpace=wrap;html=1;" vertex="1" parent="1">
          <mxGeometry x="150" y="40" width="330" height="720" as="geometry" />
        </mxCell>
        <mxCell id="alUNZszVCnnEZAuiXwET-4" value="" style="rounded=0;whiteSpace=wrap;html=1;" vertex="1" parent="1">
          <mxGeometry x="170" y="100" width="290" height="140" as="geometry" />
        </mxCell>
        <mxCell id="alUNZszVCnnEZAuiXwET-5" value="Movie Poster" style="rounded=0;whiteSpace=wrap;html=1;" vertex="1" parent="1">
          <mxGeometry x="180" y="120" width="120" height="100" as="geometry" />
        </mxCell>
        <mxCell id="alUNZszVCnnEZAuiXwET-6" value="Movie Title&lt;div&gt;Movie Rating&lt;/div&gt;" style="rounded=0;whiteSpace=wrap;html=1;" vertex="1" parent="1">
          <mxGeometry x="320" y="140" width="120" height="60" as="geometry" />
        </mxCell>
        <mxCell id="alUNZszVCnnEZAuiXwET-7" value="" style="rounded=0;whiteSpace=wrap;html=1;" vertex="1" parent="1">
          <mxGeometry x="170" y="250" width="290" height="140" as="geometry" />
        </mxCell>
        <mxCell id="alUNZszVCnnEZAuiXwET-8" value="Movie Poster" style="rounded=0;whiteSpace=wrap;html=1;" vertex="1" parent="1">
          <mxGeometry x="180" y="270" width="120" height="100" as="geometry" />
        </mxCell>
        <mxCell id="alUNZszVCnnEZAuiXwET-9" value="Movie Title&lt;div&gt;Movie Rating&lt;/div&gt;" style="rounded=0;whiteSpace=wrap;html=1;" vertex="1" parent="1">
          <mxGeometry x="320" y="290" width="120" height="60" as="geometry" />
        </mxCell>
        <mxCell id="alUNZszVCnnEZAuiXwET-10" value="" style="rounded=0;whiteSpace=wrap;html=1;" vertex="1" parent="1">
          <mxGeometry x="170" y="400" width="290" height="140" as="geometry" />
        </mxCell>
        <mxCell id="alUNZszVCnnEZAuiXwET-11" value="Movie Poster" style="rounded=0;whiteSpace=wrap;html=1;" vertex="1" parent="1">
          <mxGeometry x="180" y="420" width="120" height="100" as="geometry" />
        </mxCell>
        <mxCell id="alUNZszVCnnEZAuiXwET-12" value="Movie Title&lt;div&gt;Movie Rating&lt;/div&gt;" style="rounded=0;whiteSpace=wrap;html=1;" vertex="1" parent="1">
          <mxGeometry x="320" y="440" width="120" height="60" as="geometry" />
        </mxCell>
        <mxCell id="alUNZszVCnnEZAuiXwET-13" value="" style="rounded=0;whiteSpace=wrap;html=1;" vertex="1" parent="1">
          <mxGeometry x="170" y="550" width="290" height="140" as="geometry" />
        </mxCell>
        <mxCell id="alUNZszVCnnEZAuiXwET-14" value="Movie Poster" style="rounded=0;whiteSpace=wrap;html=1;" vertex="1" parent="1">
          <mxGeometry x="180" y="570" width="120" height="100" as="geometry" />
        </mxCell>
        <mxCell id="alUNZszVCnnEZAuiXwET-15" value="Movie Title&lt;div&gt;Movie Rating&lt;/div&gt;" style="rounded=0;whiteSpace=wrap;html=1;" vertex="1" parent="1">
          <mxGeometry x="320" y="590" width="120" height="60" as="geometry" />
        </mxCell>
        <mxCell id="alUNZszVCnnEZAuiXwET-16" value="" style="rounded=0;whiteSpace=wrap;html=1;" vertex="1" parent="1">
          <mxGeometry x="170" y="700" width="290" height="50" as="geometry" />
        </mxCell>
        <mxCell id="alUNZszVCnnEZAuiXwET-17" value="Movie Poster" style="rounded=0;whiteSpace=wrap;html=1;" vertex="1" parent="1">
          <mxGeometry x="180" y="720" width="120" height="30" as="geometry" />
        </mxCell>
        <mxCell id="alUNZszVCnnEZAuiXwET-18" value="Movie Title&lt;div&gt;Movie Rating&lt;/div&gt;" style="rounded=0;whiteSpace=wrap;html=1;" vertex="1" parent="1">
          <mxGeometry x="320" y="740" width="120" height="10" as="geometry" />
        </mxCell>
        <mxCell id="alUNZszVCnnEZAuiXwET-19" value="Top 10 Movies" style="text;html=1;align=center;verticalAlign=middle;whiteSpace=wrap;rounded=0;" vertex="1" parent="1">
          <mxGeometry x="240" y="60" width="150" height="30" as="geometry" />
        </mxCell>
      </root>
    </mxGraphModel>
  </diagram>
</mxfile>
